<svg width="547" height="301" xmlns="http://www.w3.org/2000/svg"><path d="M394.1 271s35.9 8.6 40.3 29.1c0 0 14.1-24.7 31.4-26.6 0 0-12.8-6.7-30.1 10.6 0 0-8.6-14.1-41.6-13.1zM266.9 119.8s25.9 6.2 29.1 21c0 0 10.2-17.8 22.7-19.2 0 0-9.3-4.9-21.7 7.6-.1.1-6.3-10-30.1-9.4zm227.6 96.7s25.9 6.2 29.1 21c0 0 10.2-17.8 22.7-19.2 0 0-9.3-4.9-21.7 7.6 0 .1-6.2-10.1-30.1-9.4zM59.6.4S95.5 9 99.9 29.5c0 0 14.1-24.7 31.4-26.6 0 0-12.8-6.7-30.1 10.6 0 0-8.7-14.1-41.6-13.1zM.7 98.8s25.9 6.2 29.1 21c0 0 10.2-17.8 22.7-19.2 0 0-9.3-4.9-21.7 7.6-.1 0-6.3-10.1-30.1-9.4z" fill="#0D0D0D"/></svg>