<svg width="846" height="645" xmlns="http://www.w3.org/2000/svg"><path d="M692.9 615.8s35.9 8.6 40.3 29.1c0 0 14.1-24.7 31.4-26.6 0 0-12.8-6.7-30.1 10.6 0 0-8.6-14.1-41.6-13.1zM565.7 464.6s25.9 6.2 29.1 21c0 0 10.2-17.8 22.7-19.2 0 0-9.3-4.9-21.7 7.6-.1.1-6.3-10.1-30.1-9.4zM609 194.7s22.9 5.5 25.8 18.6c0 0 9-15.7 20-17 0 0-8.2-4.3-19.2 6.7 0 .1-5.5-8.9-26.6-8.3zm-424.4-86.5s22.9 5.5 25.8 18.6c0 0 9-15.7 20-17 0 0-8.2-4.3-19.2 6.7 0 .1-5.5-8.9-26.6-8.3zM335.5 1s22.9 5.5 25.8 18.6c0 0 9-15.7 20-17 0 0-8.2-4.3-19.2 6.7 0 .1-5.6-8.9-26.6-8.3zM.2 484.5s25.9 6.2 29.1 21c0 0 10.2-17.8 22.7-19.2 0 0-9.3-4.9-21.7 7.6 0 .1-6.2-10.1-30.1-9.4zm793.1 76.8s25.9 6.2 29.1 21c0 0 10.2-17.8 22.7-19.2 0 0-9.3-4.9-21.7 7.6 0 .1-6.2-10.1-30.1-9.4zM358.4 345.1s35.9 8.6 40.3 29.1c0 0 14.1-24.7 31.4-26.6 0 0-12.8-6.7-30.1 10.6 0 .1-8.6-14-41.6-13.1zm260.5 201.6s35.9 8.6 40.3 29.1c0 0 14.1-24.7 31.4-26.6 0 0-12.8-6.7-30.1 10.6.1 0-8.6-14.1-41.6-13.1zM299.5 443.5s25.9 6.2 29.1 21c0 0 10.2-17.8 22.7-19.2 0 0-9.3-4.9-21.7 7.6-.1.1-6.3-10.1-30.1-9.4z" fill="#0D0D0D"/></svg>